<svg width="110" height="15" viewBox="0 0 110 15" fill="none" xmlns="http://www.w3.org/2000/svg">
<path d="M2.82186 0.890676H3.76249V1.8313H2.82186V0.890676ZM3.76249 0.890676H4.70311V1.8313H3.76249V0.890676ZM4.70311 0.890676H5.64373V1.8313H4.70311V0.890676ZM5.64373 0.890676H6.58435V1.8313H5.64373V0.890676ZM6.58435 0.890676H7.52497V1.8313H6.58435V0.890676ZM7.52497 0.890676H8.46559V1.8313H7.52497V0.890676ZM7.52497 1.8313H8.46559V2.77192H7.52497V1.8313ZM8.46559 1.8313H9.40622V2.77192H8.46559V1.8313ZM6.58435 1.8313H7.52497V2.77192H6.58435V1.8313ZM5.64373 1.8313H6.58435V2.77192H5.64373V1.8313ZM4.70311 1.8313H5.64373V2.77192H4.70311V1.8313ZM3.76249 1.8313H4.70311V2.77192H3.76249V1.8313ZM2.82186 1.8313H3.76249V2.77192H2.82186V1.8313ZM1.88124 2.77192H2.82186V3.71254H1.88124V2.77192ZM1.88124 1.8313H2.82186V2.77192H1.88124V1.8313ZM0.940622 2.77192H1.88124V3.71254H0.940622V2.77192ZM2.82186 2.77192H3.76249V3.71254H2.82186V2.77192ZM3.76249 2.77192H4.70311V3.71254H3.76249V2.77192ZM4.70311 2.77192H5.64373V3.71254H4.70311V2.77192ZM5.64373 2.77192H6.58435V3.71254H5.64373V2.77192ZM6.58435 2.77192H7.52497V3.71254H6.58435V2.77192ZM7.52497 2.77192H8.46559V3.71254H7.52497V2.77192ZM8.46559 2.77192H9.40622V3.71254H8.46559V2.77192ZM9.40622 2.77192H10.3468V3.71254H9.40622V2.77192ZM9.40622 3.71254H10.3468V4.65316H9.40622V3.71254ZM8.46559 3.71254H9.40622V4.65316H8.46559V3.71254ZM7.52497 3.71254H8.46559V4.65316H7.52497V3.71254ZM6.58435 3.71254H7.52497V4.65316H6.58435V3.71254ZM7.52497 4.65316H8.46559V5.59378H7.52497V4.65316ZM9.40622 4.65316H10.3468V5.59378H9.40622V4.65316ZM8.46559 4.65316H9.40622V5.59378H8.46559V4.65316ZM9.40622 10.2969H10.3468V11.2375H9.40622V10.2969ZM9.40622 11.2375H10.3468V12.1781H9.40622V11.2375ZM9.40622 12.1781H10.3468V13.1188H9.40622V12.1781ZM8.46559 12.1781H9.40622V13.1188H8.46559V12.1781ZM8.46559 11.2375H9.40622V12.1781H8.46559V11.2375ZM8.46559 10.2969H9.40622V11.2375H8.46559V10.2969ZM7.52497 10.2969H8.46559V11.2375H7.52497V10.2969ZM7.52497 11.2375H8.46559V12.1781H7.52497V11.2375ZM6.58435 11.2375H7.52497V12.1781H6.58435V11.2375ZM7.52497 12.1781H8.46559V13.1188H7.52497V12.1781ZM8.46559 13.1188H9.40622V14.0594H8.46559V13.1188ZM7.52497 13.1188H8.46559V14.0594H7.52497V13.1188ZM6.58435 12.1781H7.52497V13.1188H6.58435V12.1781ZM6.58435 13.1188H7.52497V14.0594H6.58435V13.1188ZM7.52497 14.0594H8.46559V15H7.52497V14.0594ZM6.58435 14.0594H7.52497V15H6.58435V14.0594ZM5.64373 14.0594H6.58435V15H5.64373V14.0594ZM4.70311 14.0594H5.64373V15H4.70311V14.0594ZM3.76249 14.0594H4.70311V15H3.76249V14.0594ZM2.82186 14.0594H3.76249V15H2.82186V14.0594ZM2.82186 13.1188H3.76249V14.0594H2.82186V13.1188ZM3.76249 13.1188H4.70311V14.0594H3.76249V13.1188ZM3.76249 12.1781H4.70311V13.1188H3.76249V12.1781ZM4.70311 12.1781H5.64373V13.1188H4.70311V12.1781ZM5.64373 12.1781H6.58435V13.1188H5.64373V12.1781ZM5.64373 13.1188H6.58435V14.0594H5.64373V13.1188ZM4.70311 13.1188H5.64373V14.0594H4.70311V13.1188ZM1.88124 13.1188H2.82186V14.0594H1.88124V13.1188ZM2.82186 12.1781H3.76249V13.1188H2.82186V12.1781ZM3.76249 11.2375H4.70311V12.1781H3.76249V11.2375ZM2.82186 11.2375H3.76249V12.1781H2.82186V11.2375ZM1.88124 11.2375H2.82186V12.1781H1.88124V11.2375ZM1.88124 12.1781H2.82186V13.1188H1.88124V12.1781ZM0.940622 12.1781H1.88124V13.1188H0.940622V12.1781ZM0.940622 11.2375H1.88124V12.1781H0.940622V11.2375ZM0.940622 10.2969H1.88124V11.2375H0.940622V10.2969ZM0.940622 9.35627H1.88124V10.2969H0.940622V9.35627ZM0.940622 8.41565H1.88124V9.35627H0.940622V8.41565ZM0.940622 7.47503H1.88124V8.41565H0.940622V7.47503ZM0.940622 6.53441H1.88124V7.47503H0.940622V6.53441ZM0.940622 5.59378H1.88124V6.53441H0.940622V5.59378ZM0.940622 4.65316H1.88124V5.59378H0.940622V4.65316ZM0.940622 3.71254H1.88124V4.65316H0.940622V3.71254ZM1.88124 3.71254H2.82186V4.65316H1.88124V3.71254ZM2.82186 3.71254H3.76249V4.65316H2.82186V3.71254ZM3.76249 3.71254H4.70311V4.65316H3.76249V3.71254ZM2.82186 4.65316H3.76249V5.59378H2.82186V4.65316ZM2.82186 5.59378H3.76249V6.53441H2.82186V5.59378ZM2.82186 6.53441H3.76249V7.47503H2.82186V6.53441ZM2.82186 7.47503H3.76249V8.41565H2.82186V7.47503ZM2.82186 8.41565H3.76249V9.35627H2.82186V8.41565ZM2.82186 9.35627H3.76249V10.2969H2.82186V9.35627ZM2.82186 10.2969H3.76249V11.2375H2.82186V10.2969ZM1.88124 10.2969H2.82186V11.2375H1.88124V10.2969ZM1.88124 9.35627H2.82186V10.2969H1.88124V9.35627ZM1.88124 8.41565H2.82186V9.35627H1.88124V8.41565ZM1.88124 7.47503H2.82186V8.41565H1.88124V7.47503ZM1.88124 6.53441H2.82186V7.47503H1.88124V6.53441ZM1.88124 5.59378H2.82186V6.53441H1.88124V5.59378ZM1.88124 4.65316H2.82186V5.59378H1.88124V4.65316ZM12.2253 14.0594H13.1659V15H12.2253V14.0594ZM13.1659 14.0594H14.1066V15H13.1659V14.0594ZM14.1066 14.0594H15.0472V15H14.1066V14.0594ZM14.1066 13.1188H15.0472V14.0594H14.1066V13.1188ZM14.1066 12.1781H15.0472V13.1188H14.1066V12.1781ZM14.1066 11.2375H15.0472V12.1781H14.1066V11.2375ZM14.1066 10.2969H15.0472V11.2375H14.1066V10.2969ZM14.1066 9.35627H15.0472V10.2969H14.1066V9.35627ZM14.1066 8.41565H15.0472V9.35627H14.1066V8.41565ZM14.1066 7.47503H15.0472V8.41565H14.1066V7.47503ZM14.1066 6.53441H15.0472V7.47503H14.1066V6.53441ZM13.1659 6.53441H14.1066V7.47503H13.1659V6.53441ZM13.1659 5.59378H14.1066V6.53441H13.1659V5.59378ZM12.2253 6.53441H13.1659V7.47503H12.2253V6.53441ZM12.2253 7.47503H13.1659V8.41565H12.2253V7.47503ZM12.2253 8.41565H13.1659V9.35627H12.2253V8.41565ZM12.2253 9.35627H13.1659V10.2969H12.2253V9.35627ZM12.2253 10.2969H13.1659V11.2375H12.2253V10.2969ZM12.2253 11.2375H13.1659V12.1781H12.2253V11.2375ZM12.2253 12.1781H13.1659V13.1188H12.2253V12.1781ZM12.2253 13.1188H13.1659V14.0594H12.2253V13.1188ZM13.1659 13.1188H14.1066V14.0594H13.1659V13.1188ZM13.1659 12.1781H14.1066V13.1188H13.1659V12.1781ZM13.1659 11.2375H14.1066V12.1781H13.1659V11.2375ZM12.2253 5.59378H13.1659V6.53441H12.2253V5.59378ZM14.1066 5.59378H15.0472V6.53441H14.1066V5.59378ZM13.1659 7.47503H14.1066V8.41565H13.1659V7.47503ZM13.1659 8.41565H14.1066V9.35627H13.1659V8.41565ZM13.1659 9.35627H14.1066V10.2969H13.1659V9.35627ZM13.1659 10.2969H14.1066V11.2375H13.1659V10.2969ZM12.2253 0.890676H13.1659V1.8313H12.2253V0.890676ZM13.1659 0.890676H14.1066V1.8313H13.1659V0.890676ZM14.1066 0.890676H15.0472V1.8313H14.1066V0.890676ZM14.1066 1.8313H15.0472V2.77192H14.1066V1.8313ZM14.1066 2.77192H15.0472V3.71254H14.1066V2.77192ZM14.1066 3.71254H15.0472V4.65316H14.1066V3.71254ZM14.1066 4.65316H15.0472V5.59378H14.1066V4.65316ZM13.1659 4.65316H14.1066V5.59378H13.1659V4.65316ZM13.1659 3.71254H14.1066V4.65316H13.1659V3.71254ZM13.1659 2.77192H14.1066V3.71254H13.1659V2.77192ZM13.1659 1.8313H14.1066V2.77192H13.1659V1.8313ZM12.2253 1.8313H13.1659V2.77192H12.2253V1.8313ZM12.2253 2.77192H13.1659V3.71254H12.2253V2.77192ZM12.2253 3.71254H13.1659V4.65316H12.2253V3.71254ZM12.2253 4.65316H13.1659V5.59378H12.2253V4.65316ZM16.9376 0.890676H17.8782V1.8313H16.9376V0.890676ZM17.8782 0.890676H18.8189V1.8313H17.8782V0.890676ZM18.8189 0.890676H19.7595V1.8313H18.8189V0.890676ZM19.7595 0.890676H20.7001V1.8313H19.7595V0.890676ZM19.7595 1.8313H20.7001V2.77192H19.7595V1.8313ZM19.7595 2.77192H20.7001V3.71254H19.7595V2.77192ZM19.7595 3.71254H20.7001V4.65316H19.7595V3.71254ZM16.9376 1.8313H17.8782V2.77192H16.9376V1.8313ZM16.9376 2.77192H17.8782V3.71254H16.9376V2.77192ZM16.9376 3.71254H17.8782V4.65316H16.9376V3.71254ZM16.9376 5.59378H17.8782V6.53441H16.9376V5.59378ZM16.9376 6.53441H17.8782V7.47503H16.9376V6.53441ZM16.9376 7.47503H17.8782V8.41565H16.9376V7.47503ZM16.9376 8.41565H17.8782V9.35627H16.9376V8.41565ZM16.9376 9.35627H17.8782V10.2969H16.9376V9.35627ZM17.8782 10.2969H18.8189V11.2375H17.8782V10.2969ZM17.8782 11.2375H18.8189V12.1781H17.8782V11.2375ZM17.8782 12.1781H18.8189V13.1188H17.8782V12.1781ZM17.8782 13.1188H18.8189V14.0594H17.8782V13.1188ZM17.8782 14.0594H18.8189V15H17.8782V14.0594ZM16.9376 4.65316H17.8782V5.59378H16.9376V4.65316ZM16.9376 10.2969H17.8782V11.2375H16.9376V10.2969ZM16.9376 11.2375H17.8782V12.1781H16.9376V11.2375ZM16.9376 12.1781H17.8782V13.1188H16.9376V12.1781ZM16.9376 13.1188H17.8782V14.0594H16.9376V13.1188ZM16.9376 14.0594H17.8782V15H16.9376V14.0594ZM18.8189 14.0594H19.7595V15H18.8189V14.0594ZM18.8189 13.1188H19.7595V14.0594H18.8189V13.1188ZM18.8189 12.1781H19.7595V13.1188H18.8189V12.1781ZM18.8189 11.2375H19.7595V12.1781H18.8189V11.2375ZM18.8189 9.35627H19.7595V10.2969H18.8189V9.35627ZM18.8189 8.41565H19.7595V9.35627H18.8189V8.41565ZM18.8189 6.53441H19.7595V7.47503H18.8189V6.53441ZM18.8189 5.59378H19.7595V6.53441H18.8189V5.59378ZM18.8189 4.65316H19.7595V5.59378H18.8189V4.65316ZM18.8189 7.47503H19.7595V8.41565H18.8189V7.47503ZM18.8189 10.2969H19.7595V11.2375H18.8189V10.2969ZM17.8782 9.35627H18.8189V10.2969H17.8782V9.35627ZM17.8782 8.41565H18.8189V9.35627H17.8782V8.41565ZM17.8782 7.47503H18.8189V8.41565H17.8782V7.47503ZM17.8782 6.53441H18.8189V7.47503H17.8782V6.53441ZM17.8782 5.59378H18.8189V6.53441H17.8782V5.59378ZM17.8782 4.65316H18.8189V5.59378H17.8782V4.65316ZM17.8782 3.71254H18.8189V4.65316H17.8782V3.71254ZM17.8782 2.77192H18.8189V3.71254H17.8782V2.77192ZM17.8782 1.8313H18.8189V2.77192H17.8782V1.8313ZM18.8189 1.8313H19.7595V2.77192H18.8189V1.8313ZM18.8189 2.77192H19.7595V3.71254H18.8189V2.77192ZM18.8189 3.71254H19.7595V4.65316H18.8189V3.71254ZM19.7595 4.65316H20.7001V5.59378H19.7595V4.65316ZM19.7595 5.59378H20.7001V6.53441H19.7595V5.59378ZM20.7001 5.59378H21.6407V6.53441H20.7001V5.59378ZM20.7001 6.53441H21.6407V7.47503H20.7001V6.53441ZM19.7595 6.53441H20.7001V7.47503H19.7595V6.53441ZM20.7001 4.65316H21.6407V5.59378H20.7001V4.65316ZM20.7001 3.71254H21.6407V4.65316H20.7001V3.71254ZM20.7001 2.77192H21.6407V3.71254H20.7001V2.77192ZM20.7001 7.47503H21.6407V8.41565H20.7001V7.47503ZM21.6407 7.47503H22.5813V8.41565H21.6407V7.47503ZM21.6407 6.53441H22.5813V7.47503H21.6407V6.53441ZM21.6407 5.59378H22.5813V6.53441H21.6407V5.59378ZM21.6407 4.65316H22.5813V5.59378H21.6407V4.65316ZM20.7001 8.41565H21.6407V9.35627H20.7001V8.41565ZM21.6407 8.41565H22.5813V9.35627H21.6407V8.41565ZM22.5813 8.41565H23.522V9.35627H22.5813V8.41565ZM22.5813 7.47503H23.522V8.41565H22.5813V7.47503ZM22.5813 6.53441H23.522V7.47503H22.5813V6.53441ZM21.6407 10.2969H22.5813V11.2375H21.6407V10.2969ZM21.6407 9.35627H22.5813V10.2969H21.6407V9.35627ZM22.5813 9.35627H23.522V10.2969H22.5813V9.35627ZM22.5813 10.2969H23.522V11.2375H22.5813V10.2969ZM23.522 9.35627H24.4626V10.2969H23.522V9.35627ZM23.522 8.41565H24.4626V9.35627H23.522V8.41565ZM23.522 10.2969H24.4626V11.2375H23.522V10.2969ZM23.522 11.2375H24.4626V12.1781H23.522V11.2375ZM22.5813 11.2375H23.522V12.1781H22.5813V11.2375ZM22.5813 12.1781H23.522V13.1188H22.5813V12.1781ZM23.522 12.1781H24.4626V13.1188H23.522V12.1781ZM23.522 13.1188H24.4626V14.0594H23.522V13.1188ZM23.522 14.0594H24.4626V15H23.522V14.0594ZM24.4626 14.0594H25.4032V15H24.4626V14.0594ZM25.4032 14.0594H26.3438V15H25.4032V14.0594ZM26.3438 14.0594H27.2845V15H26.3438V14.0594ZM26.3438 13.1188H27.2845V14.0594H26.3438V13.1188ZM25.4032 12.1781H26.3438V13.1188H25.4032V12.1781ZM25.4032 11.2375H26.3438V12.1781H25.4032V11.2375ZM25.4032 10.2969H26.3438V11.2375H25.4032V10.2969ZM25.4032 9.35627H26.3438V10.2969H25.4032V9.35627ZM25.4032 8.41565H26.3438V9.35627H25.4032V8.41565ZM26.3438 10.2969H27.2845V11.2375H26.3438V10.2969ZM26.3438 11.2375H27.2845V12.1781H26.3438V11.2375ZM26.3438 12.1781H27.2845V13.1188H26.3438V12.1781ZM25.4032 13.1188H26.3438V14.0594H25.4032V13.1188ZM24.4626 13.1188H25.4032V14.0594H24.4626V13.1188ZM24.4626 12.1781H25.4032V13.1188H24.4626V12.1781ZM24.4626 11.2375H25.4032V12.1781H24.4626V11.2375ZM24.4626 10.2969H25.4032V11.2375H24.4626V10.2969ZM24.4626 9.35627H25.4032V10.2969H24.4626V9.35627ZM24.4626 8.41565H25.4032V9.35627H24.4626V8.41565ZM24.4626 7.47503H25.4032V8.41565H24.4626V7.47503ZM25.4032 7.47503H26.3438V8.41565H25.4032V7.47503ZM26.3438 9.35627H27.2845V10.2969H26.3438V9.35627ZM26.3438 8.41565H27.2845V9.35627H26.3438V8.41565ZM26.3438 7.47503H27.2845V8.41565H26.3438V7.47503ZM26.3438 6.53441H27.2845V7.47503H26.3438V6.53441ZM26.3438 5.59378H27.2845V6.53441H26.3438V5.59378ZM26.3438 4.65316H27.2845V5.59378H26.3438V4.65316ZM25.4032 4.65316H26.3438V5.59378H25.4032V4.65316ZM25.4032 3.71254H26.3438V4.65316H25.4032V3.71254ZM24.4626 4.65316H25.4032V5.59378H24.4626V4.65316ZM24.4626 5.59378H25.4032V6.53441H24.4626V5.59378ZM24.4626 6.53441H25.4032V7.47503H24.4626V6.53441ZM25.4032 6.53441H26.3438V7.47503H25.4032V6.53441ZM25.4032 5.59378H26.3438V6.53441H25.4032V5.59378ZM24.4626 0.890676H25.4032V1.8313H24.4626V0.890676ZM25.4032 0.890676H26.3438V1.8313H25.4032V0.890676ZM26.3438 0.890676H27.2845V1.8313H26.3438V0.890676ZM26.3438 1.8313H27.2845V2.77192H26.3438V1.8313ZM26.3438 2.77192H27.2845V3.71254H26.3438V2.77192ZM26.3438 3.71254H27.2845V4.65316H26.3438V3.71254ZM25.4032 2.77192H26.3438V3.71254H25.4032V2.77192ZM25.4032 1.8313H26.3438V2.77192H25.4032V1.8313ZM24.4626 3.71254H25.4032V4.65316H24.4626V3.71254ZM24.4626 2.77192H25.4032V3.71254H24.4626V2.77192ZM24.4626 1.8313H25.4032V2.77192H24.4626V1.8313ZM31.9866 14.0594H32.9273V15H31.9866V14.0594ZM32.9273 14.0594H33.8679V15H32.9273V14.0594ZM33.8679 14.0594H34.8085V15H33.8679V14.0594ZM33.8679 13.1188H34.8085V14.0594H33.8679V13.1188ZM33.8679 12.1781H34.8085V13.1188H33.8679V12.1781ZM33.8679 11.2375H34.8085V12.1781H33.8679V11.2375ZM33.8679 10.2969H34.8085V11.2375H33.8679V10.2969ZM33.8679 9.35627H34.8085V10.2969H33.8679V9.35627ZM33.8679 8.41565H34.8085V9.35627H33.8679V8.41565ZM33.8679 7.47503H34.8085V8.41565H33.8679V7.47503ZM33.8679 6.53441H34.8085V7.47503H33.8679V6.53441ZM33.8679 5.59378H34.8085V6.53441H33.8679V5.59378ZM33.8679 4.65316H34.8085V5.59378H33.8679V4.65316ZM33.8679 3.71254H34.8085V4.65316H33.8679V3.71254ZM32.9273 3.71254H33.8679V4.65316H32.9273V3.71254ZM32.9273 2.77192H33.8679V3.71254H32.9273V2.77192ZM33.8679 2.77192H34.8085V3.71254H33.8679V2.77192ZM31.9866 2.77192H32.9273V3.71254H31.9866V2.77192ZM31.9866 6.53441H32.9273V7.47503H31.9866V6.53441ZM31.9866 7.47503H32.9273V8.41565H31.9866V7.47503ZM31.9866 8.41565H32.9273V9.35627H31.9866V8.41565ZM31.9866 9.35627H32.9273V10.2969H31.9866V9.35627ZM31.9866 10.2969H32.9273V11.2375H31.9866V10.2969ZM32.9273 11.2375H33.8679V12.1781H32.9273V11.2375ZM32.9273 12.1781H33.8679V13.1188H32.9273V12.1781ZM32.9273 13.1188H33.8679V14.0594H32.9273V13.1188ZM31.9866 13.1188H32.9273V14.0594H31.9866V13.1188ZM31.9866 12.1781H32.9273V13.1188H31.9866V12.1781ZM31.9866 11.2375H32.9273V12.1781H31.9866V11.2375ZM32.9273 7.47503H33.8679V8.41565H32.9273V7.47503ZM32.9273 6.53441H33.8679V7.47503H32.9273V6.53441ZM32.9273 5.59378H33.8679V6.53441H32.9273V5.59378ZM32.9273 4.65316H33.8679V5.59378H32.9273V4.65316ZM31.9866 4.65316H32.9273V5.59378H31.9866V4.65316ZM31.9866 5.59378H32.9273V6.53441H31.9866V5.59378ZM32.9273 10.2969H33.8679V11.2375H32.9273V10.2969ZM32.9273 9.35627H33.8679V10.2969H32.9273V9.35627ZM32.9273 8.41565H33.8679V9.35627H32.9273V8.41565ZM31.9866 3.71254H32.9273V4.65316H31.9866V3.71254ZM31.9866 1.8313H32.9273V2.77192H31.9866V1.8313ZM32.9273 1.8313H33.8679V2.77192H32.9273V1.8313ZM33.8679 1.8313H34.8085V2.77192H33.8679V1.8313ZM33.8679 0.890676H34.8085V1.8313H33.8679V0.890676ZM32.9273 0.890676H33.8679V1.8313H32.9273V0.890676ZM31.9866 0.890676H32.9273V1.8313H31.9866V0.890676ZM31.046 0.890676H31.9866V1.8313H31.046V0.890676ZM30.1054 0.890676H31.046V1.8313H30.1054V0.890676ZM30.1054 1.8313H31.046V2.77192H30.1054V1.8313ZM30.1054 2.77192H31.046V3.71254H30.1054V2.77192ZM31.046 1.8313H31.9866V2.77192H31.046V1.8313ZM31.046 2.77192H31.9866V3.71254H31.046V2.77192ZM34.8085 0.890676H35.7491V1.8313H34.8085V0.890676ZM35.7491 0.890676H36.6898V1.8313H35.7491V0.890676ZM35.7491 1.8313H36.6898V2.77192H35.7491V1.8313ZM35.7491 2.77192H36.6898V3.71254H35.7491V2.77192ZM34.8085 2.77192H35.7491V3.71254H34.8085V2.77192ZM34.8085 1.8313H35.7491V2.77192H34.8085V1.8313ZM36.6898 0.890676H37.6304V1.8313H36.6898V0.890676ZM36.6898 1.8313H37.6304V2.77192H36.6898V1.8313ZM36.6898 2.77192H37.6304V3.71254H36.6898V2.77192ZM29.1648 0.890676H30.1054V1.8313H29.1648V0.890676ZM29.1648 1.8313H30.1054V2.77192H29.1648V1.8313ZM29.1648 2.77192H30.1054V3.71254H29.1648V2.77192ZM41.3883 0.890676H42.3289V1.8313H41.3883V0.890676ZM42.3289 0.890676H43.2695V1.8313H42.3289V0.890676ZM43.2695 0.890676H44.2101V1.8313H43.2695V0.890676ZM44.2101 0.890676H45.1508V1.8313H44.2101V0.890676ZM45.1508 0.890676H46.0914V1.8313H45.1508V0.890676ZM46.0914 0.890676H47.032V1.8313H46.0914V0.890676ZM46.0914 1.8313H47.032V2.77192H46.0914V1.8313ZM47.032 1.8313H47.9726V2.77192H47.032V1.8313ZM45.1508 1.8313H46.0914V2.77192H45.1508V1.8313ZM44.2101 1.8313H45.1508V2.77192H44.2101V1.8313ZM43.2695 1.8313H44.2101V2.77192H43.2695V1.8313ZM42.3289 1.8313H43.2695V2.77192H42.3289V1.8313ZM41.3883 1.8313H42.3289V2.77192H41.3883V1.8313ZM40.4476 2.77192H41.3883V3.71254H40.4476V2.77192ZM40.4476 1.8313H41.3883V2.77192H40.4476V1.8313ZM39.507 2.77192H40.4476V3.71254H39.507V2.77192ZM41.3883 2.77192H42.3289V3.71254H41.3883V2.77192ZM42.3289 2.77192H43.2695V3.71254H42.3289V2.77192ZM43.2695 2.77192H44.2101V3.71254H43.2695V2.77192ZM44.2101 2.77192H45.1508V3.71254H44.2101V2.77192ZM45.1508 2.77192H46.0914V3.71254H45.1508V2.77192ZM46.0914 2.77192H47.032V3.71254H46.0914V2.77192ZM47.032 2.77192H47.9726V3.71254H47.032V2.77192ZM47.9726 2.77192H48.9132V3.71254H47.9726V2.77192ZM47.9726 3.71254H48.9132V4.65316H47.9726V3.71254ZM47.032 3.71254H47.9726V4.65316H47.032V3.71254ZM46.0914 3.71254H47.032V4.65316H46.0914V3.71254ZM45.1508 3.71254H46.0914V4.65316H45.1508V3.71254ZM46.0914 4.65316H47.032V5.59378H46.0914V4.65316ZM46.0914 5.59378H47.032V6.53441H46.0914V5.59378ZM46.0914 6.53441H47.032V7.47503H46.0914V6.53441ZM46.0914 7.47503H47.032V8.41565H46.0914V7.47503ZM46.0914 8.41565H47.032V9.35627H46.0914V8.41565ZM47.032 7.47503H47.9726V8.41565H47.032V7.47503ZM47.9726 7.47503H48.9132V8.41565H47.9726V7.47503ZM47.9726 6.53441H48.9132V7.47503H47.9726V6.53441ZM47.9726 5.59378H48.9132V6.53441H47.9726V5.59378ZM47.9726 4.65316H48.9132V5.59378H47.9726V4.65316ZM47.032 4.65316H47.9726V5.59378H47.032V4.65316ZM47.032 5.59378H47.9726V6.53441H47.032V5.59378ZM47.032 6.53441H47.9726V7.47503H47.032V6.53441ZM47.032 8.41565H47.9726V9.35627H47.032V8.41565ZM47.032 9.35627H47.9726V10.2969H47.032V9.35627ZM47.9726 9.35627H48.9132V10.2969H47.9726V9.35627ZM47.9726 8.41565H48.9132V9.35627H47.9726V8.41565ZM47.9726 10.2969H48.9132V11.2375H47.9726V10.2969ZM47.9726 11.2375H48.9132V12.1781H47.9726V11.2375ZM47.9726 12.1781H48.9132V13.1188H47.9726V12.1781ZM47.032 12.1781H47.9726V13.1188H47.032V12.1781ZM47.032 11.2375H47.9726V12.1781H47.032V11.2375ZM47.032 10.2969H47.9726V11.2375H47.032V10.2969ZM46.0914 9.35627H47.032V10.2969H46.0914V9.35627ZM46.0914 10.2969H47.032V11.2375H46.0914V10.2969ZM46.0914 11.2375H47.032V12.1781H46.0914V11.2375ZM45.1508 11.2375H46.0914V12.1781H45.1508V11.2375ZM46.0914 12.1781H47.032V13.1188H46.0914V12.1781ZM47.032 13.1188H47.9726V14.0594H47.032V13.1188ZM46.0914 13.1188H47.032V14.0594H46.0914V13.1188ZM45.1508 12.1781H46.0914V13.1188H45.1508V12.1781ZM45.1508 13.1188H46.0914V14.0594H45.1508V13.1188ZM46.0914 14.0594H47.032V15H46.0914V14.0594ZM45.1508 14.0594H46.0914V15H45.1508V14.0594ZM44.2101 14.0594H45.1508V15H44.2101V14.0594ZM43.2695 14.0594H44.2101V15H43.2695V14.0594ZM42.3289 14.0594H43.2695V15H42.3289V14.0594ZM41.3883 14.0594H42.3289V15H41.3883V14.0594ZM41.3883 13.1188H42.3289V14.0594H41.3883V13.1188ZM42.3289 13.1188H43.2695V14.0594H42.3289V13.1188ZM42.3289 12.1781H43.2695V13.1188H42.3289V12.1781ZM43.2695 12.1781H44.2101V13.1188H43.2695V12.1781ZM44.2101 12.1781H45.1508V13.1188H44.2101V12.1781ZM44.2101 13.1188H45.1508V14.0594H44.2101V13.1188ZM43.2695 13.1188H44.2101V14.0594H43.2695V13.1188ZM40.4476 13.1188H41.3883V14.0594H40.4476V13.1188ZM41.3883 12.1781H42.3289V13.1188H41.3883V12.1781ZM42.3289 11.2375H43.2695V12.1781H42.3289V11.2375ZM41.3883 11.2375H42.3289V12.1781H41.3883V11.2375ZM40.4476 11.2375H41.3883V12.1781H40.4476V11.2375ZM40.4476 12.1781H41.3883V13.1188H40.4476V12.1781ZM39.507 12.1781H40.4476V13.1188H39.507V12.1781ZM39.507 11.2375H40.4476V12.1781H39.507V11.2375ZM39.507 10.2969H40.4476V11.2375H39.507V10.2969ZM39.507 9.35627H40.4476V10.2969H39.507V9.35627ZM39.507 8.41565H40.4476V9.35627H39.507V8.41565ZM39.507 7.47503H40.4476V8.41565H39.507V7.47503ZM39.507 6.53441H40.4476V7.47503H39.507V6.53441ZM39.507 5.59378H40.4476V6.53441H39.507V5.59378ZM39.507 4.65316H40.4476V5.59378H39.507V4.65316ZM39.507 3.71254H40.4476V4.65316H39.507V3.71254ZM40.4476 3.71254H41.3883V4.65316H40.4476V3.71254ZM41.3883 3.71254H42.3289V4.65316H41.3883V3.71254ZM42.3289 3.71254H43.2695V4.65316H42.3289V3.71254ZM41.3883 4.65316H42.3289V5.59378H41.3883V4.65316ZM41.3883 5.59378H42.3289V6.53441H41.3883V5.59378ZM41.3883 6.53441H42.3289V7.47503H41.3883V6.53441ZM41.3883 7.47503H42.3289V8.41565H41.3883V7.47503ZM41.3883 8.41565H42.3289V9.35627H41.3883V8.41565ZM41.3883 9.35627H42.3289V10.2969H41.3883V9.35627ZM41.3883 10.2969H42.3289V11.2375H41.3883V10.2969ZM40.4476 10.2969H41.3883V11.2375H40.4476V10.2969ZM40.4476 9.35627H41.3883V10.2969H40.4476V9.35627ZM40.4476 8.41565H41.3883V9.35627H40.4476V8.41565ZM40.4476 7.47503H41.3883V8.41565H40.4476V7.47503ZM40.4476 6.53441H41.3883V7.47503H40.4476V6.53441ZM40.4476 5.59378H41.3883V6.53441H40.4476V5.59378ZM40.4476 4.65316H41.3883V5.59378H40.4476V4.65316ZM50.7917 0.890676H51.7323V1.8313H50.7917V0.890676ZM51.7323 0.890676H52.673V1.8313H51.7323V0.890676ZM51.7323 1.8313H52.673V2.77192H51.7323V1.8313ZM51.7323 2.77192H52.673V3.71254H51.7323V2.77192ZM51.7323 3.71254H52.673V4.65316H51.7323V3.71254ZM51.7323 4.65316H52.673V5.59378H51.7323V4.65316ZM52.673 3.71254H53.6136V4.65316H52.673V3.71254ZM52.673 2.77192H53.6136V3.71254H52.673V2.77192ZM52.673 1.8313H53.6136V2.77192H52.673V1.8313ZM52.673 0.890676H53.6136V1.8313H52.673V0.890676ZM50.7917 2.77192H51.7323V3.71254H50.7917V2.77192ZM50.7917 1.8313H51.7323V2.77192H50.7917V1.8313ZM50.7917 3.71254H51.7323V4.65316H50.7917V3.71254ZM50.7917 4.65316H51.7323V5.59378H50.7917V4.65316ZM50.7917 5.59378H51.7323V6.53441H50.7917V5.59378ZM50.7917 6.53441H51.7323V7.47503H50.7917V6.53441ZM50.7917 7.47503H51.7323V8.41565H50.7917V7.47503ZM50.7917 8.41565H51.7323V9.35627H50.7917V8.41565ZM50.7917 9.35627H51.7323V10.2969H50.7917V9.35627ZM50.7917 10.2969H51.7323V11.2375H50.7917V10.2969ZM50.7917 11.2375H51.7323V12.1781H50.7917V11.2375ZM50.7917 12.1781H51.7323V13.1188H50.7917V12.1781ZM51.7323 12.1781H52.673V13.1188H51.7323V12.1781ZM51.7323 13.1188H52.673V14.0594H51.7323V13.1188ZM51.7323 14.0594H52.673V15H51.7323V14.0594ZM50.7917 14.0594H51.7323V15H50.7917V14.0594ZM50.7917 13.1188H51.7323V14.0594H50.7917V13.1188ZM52.673 14.0594H53.6136V15H52.673V14.0594ZM52.673 13.1188H53.6136V14.0594H52.673V13.1188ZM52.673 12.1781H53.6136V13.1188H52.673V12.1781ZM52.673 11.2375H53.6136V12.1781H52.673V11.2375ZM52.673 10.2969H53.6136V11.2375H52.673V10.2969ZM52.673 9.35627H53.6136V10.2969H52.673V9.35627ZM52.673 8.41565H53.6136V9.35627H52.673V8.41565ZM51.7323 8.41565H52.673V9.35627H51.7323V8.41565ZM51.7323 7.47503H52.673V8.41565H51.7323V7.47503ZM51.7323 6.53441H52.673V7.47503H51.7323V6.53441ZM51.7323 5.59378H52.673V6.53441H51.7323V5.59378ZM52.673 4.65316H53.6136V5.59378H52.673V4.65316ZM52.673 5.59378H53.6136V6.53441H52.673V5.59378ZM52.673 6.53441H53.6136V7.47503H52.673V6.53441ZM52.673 7.47503H53.6136V8.41565H52.673V7.47503ZM51.7323 9.35627H52.673V10.2969H51.7323V9.35627ZM51.7323 10.2969H52.673V11.2375H51.7323V10.2969ZM51.7323 11.2375H52.673V12.1781H51.7323V11.2375ZM63.9604 0.890676H64.901V1.8313H63.9604V0.890676ZM63.9604 1.8313H64.901V2.77192H63.9604V1.8313ZM63.9604 2.77192H64.901V3.71254H63.9604V2.77192ZM63.9604 3.71254H64.901V4.65316H63.9604V3.71254ZM63.9604 4.65316H64.901V5.59378H63.9604V4.65316ZM63.9604 5.59378H64.901V6.53441H63.9604V5.59378ZM63.9604 6.53441H64.901V7.47503H63.9604V6.53441ZM63.9604 7.47503H64.901V8.41565H63.9604V7.47503ZM63.9604 8.41565H64.901V9.35627H63.9604V8.41565ZM63.9604 9.35627H64.901V10.2969H63.9604V9.35627ZM63.9604 10.2969H64.901V11.2375H63.9604V10.2969ZM63.9604 11.2375H64.901V12.1781H63.9604V11.2375ZM63.9604 12.1781H64.901V13.1188H63.9604V12.1781ZM63.9604 13.1188H64.901V14.0594H63.9604V13.1188ZM63.9604 14.0594H64.901V15H63.9604V14.0594ZM63.0198 14.0594H63.9604V15H63.0198V14.0594ZM62.0792 13.1188H63.0198V14.0594H62.0792V13.1188ZM62.0792 12.1781H63.0198V13.1188H62.0792V12.1781ZM62.0792 14.0594H63.0198V15H62.0792V14.0594ZM63.0198 13.1188H63.9604V14.0594H63.0198V13.1188ZM63.0198 12.1781H63.9604V13.1188H63.0198V12.1781ZM63.0198 11.2375H63.9604V12.1781H63.0198V11.2375ZM63.0198 10.2969H63.9604V11.2375H63.0198V10.2969ZM63.0198 9.35627H63.9604V10.2969H63.0198V9.35627ZM63.0198 8.41565H63.9604V9.35627H63.0198V8.41565ZM63.0198 7.47503H63.9604V8.41565H63.0198V7.47503ZM63.0198 6.53441H63.9604V7.47503H63.0198V6.53441ZM63.0198 5.59378H63.9604V6.53441H63.0198V5.59378ZM63.0198 4.65316H63.9604V5.59378H63.0198V4.65316ZM63.0198 3.71254H63.9604V4.65316H63.0198V3.71254ZM63.0198 2.77192H63.9604V3.71254H63.0198V2.77192ZM63.0198 1.8313H63.9604V2.77192H63.0198V1.8313ZM63.0198 0.890676H63.9604V1.8313H63.0198V0.890676ZM62.0792 0.890676H63.0198V1.8313H62.0792V0.890676ZM62.0792 1.8313H63.0198V2.77192H62.0792V1.8313ZM62.0792 2.77192H63.0198V3.71254H62.0792V2.77192ZM62.0792 3.71254H63.0198V4.65316H62.0792V3.71254ZM62.0792 5.59378H63.0198V6.53441H62.0792V5.59378ZM62.0792 6.53441H63.0198V7.47503H62.0792V6.53441ZM62.0792 7.47503H63.0198V8.41565H62.0792V7.47503ZM62.0792 8.41565H63.0198V9.35627H62.0792V8.41565ZM62.0792 11.2375H63.0198V12.1781H62.0792V11.2375ZM62.0792 10.2969H63.0198V11.2375H62.0792V10.2969ZM62.0792 9.35627H63.0198V10.2969H62.0792V9.35627ZM62.0792 4.65316H63.0198V5.59378H62.0792V4.65316ZM53.6136 1.8313H54.5542V2.77192H53.6136V1.8313ZM53.6136 2.77192H54.5542V3.71254H53.6136V2.77192ZM53.6136 3.71254H54.5542V4.65316H53.6136V3.71254ZM53.6136 4.65316H54.5542V5.59378H53.6136V4.65316ZM53.6136 5.59378H54.5542V6.53441H53.6136V5.59378ZM54.5542 2.77192H55.4948V3.71254H54.5542V2.77192ZM54.5542 3.71254H55.4948V4.65316H54.5542V3.71254ZM54.5542 4.65316H55.4948V5.59378H54.5542V4.65316ZM54.5542 5.59378H55.4948V6.53441H54.5542V5.59378ZM54.5542 6.53441H55.4948V7.47503H54.5542V6.53441ZM55.4948 3.71254H56.4355V4.65316H55.4948V3.71254ZM55.4948 4.65316H56.4355V5.59378H55.4948V4.65316ZM55.4948 5.59378H56.4355V6.53441H55.4948V5.59378ZM55.4948 6.53441H56.4355V7.47503H55.4948V6.53441ZM55.4948 7.47503H56.4355V8.41565H55.4948V7.47503ZM56.4355 4.65316H57.3761V5.59378H56.4355V4.65316ZM56.4355 5.59378H57.3761V6.53441H56.4355V5.59378ZM56.4355 6.53441H57.3761V7.47503H56.4355V6.53441ZM56.4355 7.47503H57.3761V8.41565H56.4355V7.47503ZM56.4355 8.41565H57.3761V9.35627H56.4355V8.41565ZM57.3761 5.59378H58.3167V6.53441H57.3761V5.59378ZM57.3761 6.53441H58.3167V7.47503H57.3761V6.53441ZM57.3761 7.47503H58.3167V8.41565H57.3761V7.47503ZM58.3167 4.65316H59.2573V5.59378H58.3167V4.65316ZM58.3167 5.59378H59.2573V6.53441H58.3167V5.59378ZM58.3167 6.53441H59.2573V7.47503H58.3167V6.53441ZM59.2573 3.71254H60.1979V4.65316H59.2573V3.71254ZM59.2573 4.65316H60.1979V5.59378H59.2573V4.65316ZM59.2573 5.59378H60.1979V6.53441H59.2573V5.59378ZM61.1386 1.8313H62.0792V2.77192H61.1386V1.8313ZM61.1386 2.77192H62.0792V3.71254H61.1386V2.77192ZM61.1386 3.71254H62.0792V4.65316H61.1386V3.71254ZM61.1386 4.65316H62.0792V5.59378H61.1386V4.65316ZM61.1386 5.59378H62.0792V6.53441H61.1386V5.59378ZM60.1979 2.77192H61.1386V3.71254H60.1979V2.77192ZM60.1979 3.71254H61.1386V4.65316H60.1979V3.71254ZM60.1979 4.65316H61.1386V5.59378H60.1979V4.65316ZM60.1979 5.59378H61.1386V6.53441H60.1979V5.59378ZM60.1979 6.53441H61.1386V7.47503H60.1979V6.53441ZM59.2573 6.53441H60.1979V7.47503H59.2573V6.53441ZM59.2573 7.47503H60.1979V8.41565H59.2573V7.47503ZM58.3167 7.47503H59.2573V8.41565H58.3167V7.47503ZM58.3167 8.41565H59.2573V9.35627H58.3167V8.41565ZM57.3761 8.41565H58.3167V9.35627H57.3761V8.41565ZM57.3761 9.35627H58.3167V10.2969H57.3761V9.35627ZM70.5512 0.890676H71.4918V1.8313H70.5512V0.890676ZM71.4918 0.890676H72.4324V1.8313H71.4918V0.890676ZM71.4918 1.8313H72.4324V2.77192H71.4918V1.8313ZM72.4324 1.8313H73.3731V2.77192H72.4324V1.8313ZM70.5512 1.8313H71.4918V2.77192H70.5512V1.8313ZM69.6106 1.8313H70.5512V2.77192H69.6106V1.8313ZM69.6106 2.77192H70.5512V3.71254H69.6106V2.77192ZM68.67 2.77192H69.6106V3.71254H68.67V2.77192ZM70.5512 2.77192H71.4918V3.71254H70.5512V2.77192ZM71.4918 2.77192H72.4324V3.71254H71.4918V2.77192ZM72.4324 2.77192H73.3731V3.71254H72.4324V2.77192ZM73.3731 2.77192H74.3137V3.71254H73.3731V2.77192ZM73.3731 3.71254H74.3137V4.65316H73.3731V3.71254ZM74.3137 3.71254H75.2543V4.65316H74.3137V3.71254ZM72.4324 3.71254H73.3731V4.65316H72.4324V3.71254ZM71.4918 3.71254H72.4324V4.65316H71.4918V3.71254ZM70.5512 3.71254H71.4918V4.65316H70.5512V3.71254ZM69.6106 3.71254H70.5512V4.65316H69.6106V3.71254ZM68.67 3.71254H69.6106V4.65316H68.67V3.71254ZM67.7293 3.71254H68.67V4.65316H67.7293V3.71254ZM69.6106 4.65316H70.5512V5.59378H69.6106V4.65316ZM68.67 4.65316H69.6106V5.59378H68.67V4.65316ZM67.7293 4.65316H68.67V5.59378H67.7293V4.65316ZM66.7887 4.65316H67.7293V5.59378H66.7887V4.65316ZM66.7887 5.59378H67.7293V6.53441H66.7887V5.59378ZM66.7887 6.53441H67.7293V7.47503H66.7887V6.53441ZM67.7293 6.53441H68.67V7.47503H67.7293V6.53441ZM67.7293 5.59378H68.67V6.53441H67.7293V5.59378ZM68.67 5.59378H69.6106V6.53441H68.67V5.59378ZM68.67 6.53441H69.6106V7.47503H68.67V6.53441ZM68.67 7.47503H69.6106V8.41565H68.67V7.47503ZM67.7293 7.47503H68.67V8.41565H67.7293V7.47503ZM66.7887 7.47503H67.7293V8.41565H66.7887V7.47503ZM66.7887 8.41565H67.7293V9.35627H66.7887V8.41565ZM67.7293 8.41565H68.67V9.35627H67.7293V8.41565ZM68.67 8.41565H69.6106V9.35627H68.67V8.41565ZM69.6106 8.41565H70.5512V9.35627H69.6106V8.41565ZM70.5512 8.41565H71.4918V9.35627H70.5512V8.41565ZM71.4918 8.41565H72.4324V9.35627H71.4918V8.41565ZM72.4324 8.41565H73.3731V9.35627H72.4324V8.41565ZM73.3731 7.47503H74.3137V8.41565H73.3731V7.47503ZM74.3137 7.47503H75.2543V8.41565H74.3137V7.47503ZM74.3137 8.41565H75.2543V9.35627H74.3137V8.41565ZM73.3731 8.41565H74.3137V9.35627H73.3731V8.41565ZM75.2543 8.41565H76.1949V9.35627H75.2543V8.41565ZM75.2543 7.47503H76.1949V8.41565H75.2543V7.47503ZM75.2543 6.53441H76.1949V7.47503H75.2543V6.53441ZM75.2543 5.59378H76.1949V6.53441H75.2543V5.59378ZM75.2543 4.65316H76.1949V5.59378H75.2543V4.65316ZM74.3137 4.65316H75.2543V5.59378H74.3137V4.65316ZM73.3731 4.65316H74.3137V5.59378H73.3731V4.65316ZM72.4324 4.65316H73.3731V5.59378H72.4324V4.65316ZM74.3137 5.59378H75.2543V6.53441H74.3137V5.59378ZM74.3137 6.53441H75.2543V7.47503H74.3137V6.53441ZM73.3731 6.53441H74.3137V7.47503H73.3731V6.53441ZM73.3731 5.59378H74.3137V6.53441H73.3731V5.59378ZM66.7887 9.35627H67.7293V10.2969H66.7887V9.35627ZM67.7293 9.35627H68.67V10.2969H67.7293V9.35627ZM68.67 9.35627H69.6106V10.2969H68.67V9.35627ZM69.6106 9.35627H70.5512V10.2969H69.6106V9.35627ZM70.5512 9.35627H71.4918V10.2969H70.5512V9.35627ZM71.4918 9.35627H72.4324V10.2969H71.4918V9.35627ZM72.4324 9.35627H73.3731V10.2969H72.4324V9.35627ZM73.3731 9.35627H74.3137V10.2969H73.3731V9.35627ZM74.3137 9.35627H75.2543V10.2969H74.3137V9.35627ZM75.2543 9.35627H76.1949V10.2969H75.2543V9.35627ZM75.2543 10.2969H76.1949V11.2375H75.2543V10.2969ZM74.3137 10.2969H75.2543V11.2375H74.3137V10.2969ZM73.3731 10.2969H74.3137V11.2375H73.3731V10.2969ZM72.4324 10.2969H73.3731V11.2375H72.4324V10.2969ZM71.4918 10.2969H72.4324V11.2375H71.4918V10.2969ZM70.5512 10.2969H71.4918V11.2375H70.5512V10.2969ZM69.6106 10.2969H70.5512V11.2375H69.6106V10.2969ZM67.7293 10.2969H68.67V11.2375H67.7293V10.2969ZM66.7887 10.2969H67.7293V11.2375H66.7887V10.2969ZM68.67 10.2969H69.6106V11.2375H68.67V10.2969ZM68.67 11.2375H69.6106V12.1781H68.67V11.2375ZM68.67 12.1781H69.6106V13.1188H68.67V12.1781ZM68.67 13.1188H69.6106V14.0594H68.67V13.1188ZM68.67 14.0594H69.6106V15H68.67V14.0594ZM67.7293 14.0594H68.67V15H67.7293V14.0594ZM66.7887 14.0594H67.7293V15H66.7887V14.0594ZM66.7887 13.1188H67.7293V14.0594H66.7887V13.1188ZM66.7887 12.1781H67.7293V13.1188H66.7887V12.1781ZM66.7887 11.2375H67.7293V12.1781H66.7887V11.2375ZM67.7293 11.2375H68.67V12.1781H67.7293V11.2375ZM67.7293 12.1781H68.67V13.1188H67.7293V12.1781ZM67.7293 13.1188H68.67V14.0594H67.7293V13.1188ZM73.3731 11.2375H74.3137V12.1781H73.3731V11.2375ZM73.3731 12.1781H74.3137V13.1188H73.3731V12.1781ZM73.3731 13.1188H74.3137V14.0594H73.3731V13.1188ZM73.3731 14.0594H74.3137V15H73.3731V14.0594ZM74.3137 14.0594H75.2543V15H74.3137V14.0594ZM75.2543 14.0594H76.1949V15H75.2543V14.0594ZM75.2543 13.1188H76.1949V14.0594H75.2543V13.1188ZM75.2543 12.1781H76.1949V13.1188H75.2543V12.1781ZM75.2543 11.2375H76.1949V12.1781H75.2543V11.2375ZM74.3137 11.2375H75.2543V12.1781H74.3137V11.2375ZM74.3137 12.1781H75.2543V13.1188H74.3137V12.1781ZM74.3137 13.1188H75.2543V14.0594H74.3137V13.1188ZM78.0734 0.890676H79.014V1.8313H78.0734V0.890676ZM79.014 0.890676H79.9547V1.8313H79.014V0.890676ZM79.9547 0.890676H80.8953V1.8313H79.9547V0.890676ZM80.8953 0.890676H81.8359V1.8313H80.8953V0.890676ZM80.8953 1.8313H81.8359V2.77192H80.8953V1.8313ZM80.8953 2.77192H81.8359V3.71254H80.8953V2.77192ZM80.8953 3.71254H81.8359V4.65316H80.8953V3.71254ZM78.0734 1.8313H79.014V2.77192H78.0734V1.8313ZM78.0734 2.77192H79.014V3.71254H78.0734V2.77192ZM78.0734 3.71254H79.014V4.65316H78.0734V3.71254ZM78.0734 5.59378H79.014V6.53441H78.0734V5.59378ZM78.0734 6.53441H79.014V7.47503H78.0734V6.53441ZM78.0734 7.47503H79.014V8.41565H78.0734V7.47503ZM78.0734 8.41565H79.014V9.35627H78.0734V8.41565ZM78.0734 9.35627H79.014V10.2969H78.0734V9.35627ZM79.014 10.2969H79.9547V11.2375H79.014V10.2969ZM79.014 11.2375H79.9547V12.1781H79.014V11.2375ZM79.014 12.1781H79.9547V13.1188H79.014V12.1781ZM79.014 13.1188H79.9547V14.0594H79.014V13.1188ZM79.014 14.0594H79.9547V15H79.014V14.0594ZM78.0734 4.65316H79.014V5.59378H78.0734V4.65316ZM78.0734 10.2969H79.014V11.2375H78.0734V10.2969ZM78.0734 11.2375H79.014V12.1781H78.0734V11.2375ZM78.0734 12.1781H79.014V13.1188H78.0734V12.1781ZM78.0734 13.1188H79.014V14.0594H78.0734V13.1188ZM78.0734 14.0594H79.014V15H78.0734V14.0594ZM79.9547 14.0594H80.8953V15H79.9547V14.0594ZM79.9547 13.1188H80.8953V14.0594H79.9547V13.1188ZM79.9547 12.1781H80.8953V13.1188H79.9547V12.1781ZM79.9547 11.2375H80.8953V12.1781H79.9547V11.2375ZM79.9547 9.35627H80.8953V10.2969H79.9547V9.35627ZM79.9547 8.41565H80.8953V9.35627H79.9547V8.41565ZM79.9547 6.53441H80.8953V7.47503H79.9547V6.53441ZM79.9547 5.59378H80.8953V6.53441H79.9547V5.59378ZM79.9547 4.65316H80.8953V5.59378H79.9547V4.65316ZM79.9547 7.47503H80.8953V8.41565H79.9547V7.47503ZM79.9547 10.2969H80.8953V11.2375H79.9547V10.2969ZM79.014 9.35627H79.9547V10.2969H79.014V9.35627ZM79.014 8.41565H79.9547V9.35627H79.014V8.41565ZM79.014 7.47503H79.9547V8.41565H79.014V7.47503ZM79.014 6.53441H79.9547V7.47503H79.014V6.53441ZM79.014 5.59378H79.9547V6.53441H79.014V5.59378ZM79.014 4.65316H79.9547V5.59378H79.014V4.65316ZM79.014 3.71254H79.9547V4.65316H79.014V3.71254ZM79.014 2.77192H79.9547V3.71254H79.014V2.77192ZM79.014 1.8313H79.9547V2.77192H79.014V1.8313ZM79.9547 1.8313H80.8953V2.77192H79.9547V1.8313ZM79.9547 2.77192H80.8953V3.71254H79.9547V2.77192ZM79.9547 3.71254H80.8953V4.65316H79.9547V3.71254ZM80.8953 4.65316H81.8359V5.59378H80.8953V4.65316ZM80.8953 5.59378H81.8359V6.53441H80.8953V5.59378ZM81.8359 5.59378H82.7765V6.53441H81.8359V5.59378ZM81.8359 6.53441H82.7765V7.47503H81.8359V6.53441ZM80.8953 6.53441H81.8359V7.47503H80.8953V6.53441ZM81.8359 4.65316H82.7765V5.59378H81.8359V4.65316ZM81.8359 3.71254H82.7765V4.65316H81.8359V3.71254ZM81.8359 2.77192H82.7765V3.71254H81.8359V2.77192ZM81.8359 7.47503H82.7765V8.41565H81.8359V7.47503ZM82.7765 7.47503H83.7172V8.41565H82.7765V7.47503ZM82.7765 6.53441H83.7172V7.47503H82.7765V6.53441ZM82.7765 5.59378H83.7172V6.53441H82.7765V5.59378ZM82.7765 4.65316H83.7172V5.59378H82.7765V4.65316ZM81.8359 8.41565H82.7765V9.35627H81.8359V8.41565ZM82.7765 8.41565H83.7172V9.35627H82.7765V8.41565ZM83.7172 8.41565H84.6578V9.35627H83.7172V8.41565ZM83.7172 7.47503H84.6578V8.41565H83.7172V7.47503ZM83.7172 6.53441H84.6578V7.47503H83.7172V6.53441ZM82.7765 10.2969H83.7172V11.2375H82.7765V10.2969ZM82.7765 9.35627H83.7172V10.2969H82.7765V9.35627ZM83.7172 9.35627H84.6578V10.2969H83.7172V9.35627ZM83.7172 10.2969H84.6578V11.2375H83.7172V10.2969ZM84.6578 9.35627H85.5984V10.2969H84.6578V9.35627ZM84.6578 8.41565H85.5984V9.35627H84.6578V8.41565ZM84.6578 10.2969H85.5984V11.2375H84.6578V10.2969ZM84.6578 11.2375H85.5984V12.1781H84.6578V11.2375ZM83.7172 11.2375H84.6578V12.1781H83.7172V11.2375ZM83.7172 12.1781H84.6578V13.1188H83.7172V12.1781ZM84.6578 12.1781H85.5984V13.1188H84.6578V12.1781ZM84.6578 13.1188H85.5984V14.0594H84.6578V13.1188ZM84.6578 14.0594H85.5984V15H84.6578V14.0594ZM85.5984 14.0594H86.539V15H85.5984V14.0594ZM86.539 14.0594H87.4796V15H86.539V14.0594ZM87.4796 14.0594H88.4203V15H87.4796V14.0594ZM87.4796 13.1188H88.4203V14.0594H87.4796V13.1188ZM86.539 12.1781H87.4796V13.1188H86.539V12.1781ZM86.539 11.2375H87.4796V12.1781H86.539V11.2375ZM86.539 10.2969H87.4796V11.2375H86.539V10.2969ZM86.539 9.35627H87.4796V10.2969H86.539V9.35627ZM86.539 8.41565H87.4796V9.35627H86.539V8.41565ZM87.4796 10.2969H88.4203V11.2375H87.4796V10.2969ZM87.4796 11.2375H88.4203V12.1781H87.4796V11.2375ZM87.4796 12.1781H88.4203V13.1188H87.4796V12.1781ZM86.539 13.1188H87.4796V14.0594H86.539V13.1188ZM85.5984 13.1188H86.539V14.0594H85.5984V13.1188ZM85.5984 12.1781H86.539V13.1188H85.5984V12.1781ZM85.5984 11.2375H86.539V12.1781H85.5984V11.2375ZM85.5984 10.2969H86.539V11.2375H85.5984V10.2969ZM85.5984 9.35627H86.539V10.2969H85.5984V9.35627ZM85.5984 8.41565H86.539V9.35627H85.5984V8.41565ZM85.5984 7.47503H86.539V8.41565H85.5984V7.47503ZM86.539 7.47503H87.4796V8.41565H86.539V7.47503ZM87.4796 9.35627H88.4203V10.2969H87.4796V9.35627ZM87.4796 8.41565H88.4203V9.35627H87.4796V8.41565ZM87.4796 7.47503H88.4203V8.41565H87.4796V7.47503ZM87.4796 6.53441H88.4203V7.47503H87.4796V6.53441ZM87.4796 5.59378H88.4203V6.53441H87.4796V5.59378ZM87.4796 4.65316H88.4203V5.59378H87.4796V4.65316ZM86.539 4.65316H87.4796V5.59378H86.539V4.65316ZM86.539 3.71254H87.4796V4.65316H86.539V3.71254ZM85.5984 4.65316H86.539V5.59378H85.5984V4.65316ZM85.5984 5.59378H86.539V6.53441H85.5984V5.59378ZM85.5984 6.53441H86.539V7.47503H85.5984V6.53441ZM86.539 6.53441H87.4796V7.47503H86.539V6.53441ZM86.539 5.59378H87.4796V6.53441H86.539V5.59378ZM85.5984 0.890676H86.539V1.8313H85.5984V0.890676ZM86.539 0.890676H87.4796V1.8313H86.539V0.890676ZM87.4796 0.890676H88.4203V1.8313H87.4796V0.890676ZM87.4796 1.8313H88.4203V2.77192H87.4796V1.8313ZM87.4796 2.77192H88.4203V3.71254H87.4796V2.77192ZM87.4796 3.71254H88.4203V4.65316H87.4796V3.71254ZM86.539 2.77192H87.4796V3.71254H86.539V2.77192ZM86.539 1.8313H87.4796V2.77192H86.539V1.8313ZM85.5984 3.71254H86.539V4.65316H85.5984V3.71254ZM85.5984 2.77192H86.539V3.71254H85.5984V2.77192ZM85.5984 1.8313H86.539V2.77192H85.5984V1.8313ZM93.1225 14.0594H94.0631V15H93.1225V14.0594ZM94.0631 14.0594H95.0037V15H94.0631V14.0594ZM95.0037 14.0594H95.9443V15H95.0037V14.0594ZM95.0037 13.1188H95.9443V14.0594H95.0037V13.1188ZM95.0037 12.1781H95.9443V13.1188H95.0037V12.1781ZM95.0037 11.2375H95.9443V12.1781H95.0037V11.2375ZM95.0037 10.2969H95.9443V11.2375H95.0037V10.2969ZM95.0037 9.35627H95.9443V10.2969H95.0037V9.35627ZM95.0037 8.41565H95.9443V9.35627H95.0037V8.41565ZM95.0037 7.47503H95.9443V8.41565H95.0037V7.47503ZM95.0037 6.53441H95.9443V7.47503H95.0037V6.53441ZM95.0037 5.59378H95.9443V6.53441H95.0037V5.59378ZM95.0037 4.65316H95.9443V5.59378H95.0037V4.65316ZM95.0037 3.71254H95.9443V4.65316H95.0037V3.71254ZM94.0631 3.71254H95.0037V4.65316H94.0631V3.71254ZM94.0631 2.77192H95.0037V3.71254H94.0631V2.77192ZM95.0037 2.77192H95.9443V3.71254H95.0037V2.77192ZM93.1225 2.77192H94.0631V3.71254H93.1225V2.77192ZM93.1225 6.53441H94.0631V7.47503H93.1225V6.53441ZM93.1225 7.47503H94.0631V8.41565H93.1225V7.47503ZM93.1225 8.41565H94.0631V9.35627H93.1225V8.41565ZM93.1225 9.35627H94.0631V10.2969H93.1225V9.35627ZM93.1225 10.2969H94.0631V11.2375H93.1225V10.2969ZM94.0631 11.2375H95.0037V12.1781H94.0631V11.2375ZM94.0631 12.1781H95.0037V13.1188H94.0631V12.1781ZM94.0631 13.1188H95.0037V14.0594H94.0631V13.1188ZM93.1225 13.1188H94.0631V14.0594H93.1225V13.1188ZM93.1225 12.1781H94.0631V13.1188H93.1225V12.1781ZM93.1225 11.2375H94.0631V12.1781H93.1225V11.2375ZM94.0631 7.47503H95.0037V8.41565H94.0631V7.47503ZM94.0631 6.53441H95.0037V7.47503H94.0631V6.53441ZM94.0631 5.59378H95.0037V6.53441H94.0631V5.59378ZM94.0631 4.65316H95.0037V5.59378H94.0631V4.65316ZM93.1225 4.65316H94.0631V5.59378H93.1225V4.65316ZM93.1225 5.59378H94.0631V6.53441H93.1225V5.59378ZM94.0631 10.2969H95.0037V11.2375H94.0631V10.2969ZM94.0631 9.35627H95.0037V10.2969H94.0631V9.35627ZM94.0631 8.41565H95.0037V9.35627H94.0631V8.41565ZM93.1225 3.71254H94.0631V4.65316H93.1225V3.71254ZM93.1225 1.8313H94.0631V2.77192H93.1225V1.8313ZM94.0631 1.8313H95.0037V2.77192H94.0631V1.8313ZM95.0037 1.8313H95.9443V2.77192H95.0037V1.8313ZM95.0037 0.890676H95.9443V1.8313H95.0037V0.890676ZM94.0631 0.890676H95.0037V1.8313H94.0631V0.890676ZM93.1225 0.890676H94.0631V1.8313H93.1225V0.890676ZM92.1818 0.890676H93.1225V1.8313H92.1818V0.890676ZM91.2412 0.890676H92.1818V1.8313H91.2412V0.890676ZM91.2412 1.8313H92.1818V2.77192H91.2412V1.8313ZM91.2412 2.77192H92.1818V3.71254H91.2412V2.77192ZM92.1818 1.8313H93.1225V2.77192H92.1818V1.8313ZM92.1818 2.77192H93.1225V3.71254H92.1818V2.77192ZM95.9443 0.890676H96.8849V1.8313H95.9443V0.890676ZM96.8849 0.890676H97.8256V1.8313H96.8849V0.890676ZM96.8849 1.8313H97.8256V2.77192H96.8849V1.8313ZM96.8849 2.77192H97.8256V3.71254H96.8849V2.77192ZM95.9443 2.77192H96.8849V3.71254H95.9443V2.77192ZM95.9443 1.8313H96.8849V2.77192H95.9443V1.8313ZM97.8256 0.890676H98.7662V1.8313H97.8256V0.890676ZM97.8256 1.8313H98.7662V2.77192H97.8256V1.8313ZM97.8256 2.77192H98.7662V3.71254H97.8256V2.77192ZM90.3006 0.890676H91.2412V1.8313H90.3006V0.890676ZM90.3006 1.8313H91.2412V2.77192H90.3006V1.8313ZM90.3006 2.77192H91.2412V3.71254H90.3006V2.77192ZM101.583 0.890676H102.524V1.8313H101.583V0.890676ZM101.583 1.8313H102.524V2.77192H101.583V1.8313ZM101.583 2.77192H102.524V3.71254H101.583V2.77192ZM101.583 3.71254H102.524V4.65316H101.583V3.71254ZM101.583 4.65316H102.524V5.59378H101.583V4.65316ZM101.583 5.59378H102.524V6.53441H101.583V5.59378ZM101.583 6.53441H102.524V7.47503H101.583V6.53441ZM101.583 7.47503H102.524V8.41565H101.583V7.47503ZM101.583 8.41565H102.524V9.35627H101.583V8.41565ZM101.583 9.35627H102.524V10.2969H101.583V9.35627ZM101.583 10.2969H102.524V11.2375H101.583V10.2969ZM101.583 11.2375H102.524V12.1781H101.583V11.2375ZM101.583 12.1781H102.524V13.1188H101.583V12.1781ZM101.583 13.1188H102.524V14.0594H101.583V13.1188ZM101.583 14.0594H102.524V15H101.583V14.0594ZM100.643 14.0594H101.583V15H100.643V14.0594ZM100.643 13.1188H101.583V14.0594H100.643V13.1188ZM100.643 12.1781H101.583V13.1188H100.643V12.1781ZM100.643 1.8313H101.583V2.77192H100.643V1.8313ZM100.643 0.890676H101.583V1.8313H100.643V0.890676ZM100.643 2.77192H101.583V3.71254H100.643V2.77192ZM100.643 3.71254H101.583V4.65316H100.643V3.71254ZM100.643 4.65316H101.583V5.59378H100.643V4.65316ZM100.643 5.59378H101.583V6.53441H100.643V5.59378ZM100.643 6.53441H101.583V7.47503H100.643V6.53441ZM100.643 7.47503H101.583V8.41565H100.643V7.47503ZM100.643 8.41565H101.583V9.35627H100.643V8.41565ZM100.643 9.35627H101.583V10.2969H100.643V9.35627ZM100.643 10.2969H101.583V11.2375H100.643V10.2969ZM100.643 11.2375H101.583V12.1781H100.643V11.2375ZM102.524 14.0594H103.465V15H102.524V14.0594ZM102.524 13.1188H103.465V14.0594H102.524V13.1188ZM102.524 12.1781H103.465V13.1188H102.524V12.1781ZM102.524 11.2375H103.465V12.1781H102.524V11.2375ZM102.524 9.35627H103.465V10.2969H102.524V9.35627ZM102.524 8.41565H103.465V9.35627H102.524V8.41565ZM102.524 7.47503H103.465V8.41565H102.524V7.47503ZM102.524 6.53441H103.465V7.47503H102.524V6.53441ZM102.524 5.59378H103.465V6.53441H102.524V5.59378ZM102.524 4.65316H103.465V5.59378H102.524V4.65316ZM102.524 0.890676H103.465V1.8313H102.524V0.890676ZM102.524 1.8313H103.465V2.77192H102.524V1.8313ZM102.524 2.77192H103.465V3.71254H102.524V2.77192ZM102.524 3.71254H103.465V4.65316H102.524V3.71254ZM102.524 10.2969H103.465V11.2375H102.524V10.2969ZM103.465 14.0594H104.405V15H103.465V14.0594ZM104.405 14.0594H105.346V15H104.405V14.0594ZM105.346 14.0594H106.287V15H105.346V14.0594ZM105.346 13.1188H106.287V14.0594H105.346V13.1188ZM105.346 12.1781H106.287V13.1188H105.346V12.1781ZM104.405 12.1781H105.346V13.1188H104.405V12.1781ZM104.405 13.1188H105.346V14.0594H104.405V13.1188ZM103.465 13.1188H104.405V14.0594H103.465V13.1188ZM103.465 12.1781H104.405V13.1188H103.465V12.1781ZM106.287 12.1781H107.227V13.1188H106.287V12.1781ZM106.287 13.1188H107.227V14.0594H106.287V13.1188ZM106.287 14.0594H107.227V15H106.287V14.0594ZM107.227 14.0594H108.168V15H107.227V14.0594ZM107.227 13.1188H108.168V14.0594H107.227V13.1188ZM107.227 12.1781H108.168V13.1188H107.227V12.1781ZM108.168 12.1781H109.108V13.1188H108.168V12.1781ZM108.168 13.1188H109.108V14.0594H108.168V13.1188ZM108.168 14.0594H109.108V15H108.168V14.0594ZM103.465 0.890676H104.405V1.8313H103.465V0.890676ZM104.405 0.890676H105.346V1.8313H104.405V0.890676ZM105.346 0.890676H106.287V1.8313H105.346V0.890676ZM106.287 0.890676H107.227V1.8313H106.287V0.890676ZM107.227 0.890676H108.168V1.8313H107.227V0.890676ZM108.168 0.890676H109.108V1.8313H108.168V0.890676ZM108.168 1.8313H109.108V2.77192H108.168V1.8313ZM108.168 2.77192H109.108V3.71254H108.168V2.77192ZM107.227 2.77192H108.168V3.71254H107.227V2.77192ZM106.287 2.77192H107.227V3.71254H106.287V2.77192ZM105.346 2.77192H106.287V3.71254H105.346V2.77192ZM104.405 2.77192H105.346V3.71254H104.405V2.77192ZM104.405 1.8313H105.346V2.77192H104.405V1.8313ZM103.465 1.8313H104.405V2.77192H103.465V1.8313ZM103.465 2.77192H104.405V3.71254H103.465V2.77192ZM105.346 1.8313H106.287V2.77192H105.346V1.8313ZM106.287 1.8313H107.227V2.77192H106.287V1.8313ZM107.227 1.8313H108.168V2.77192H107.227V1.8313ZM103.465 6.53441H104.405V7.47503H103.465V6.53441ZM103.465 7.47503H104.405V8.41565H103.465V7.47503ZM103.465 8.41565H104.405V9.35627H103.465V8.41565ZM104.405 8.41565H105.346V9.35627H104.405V8.41565ZM104.405 7.47503H105.346V8.41565H104.405V7.47503ZM104.405 6.53441H105.346V7.47503H104.405V6.53441ZM105.346 6.53441H106.287V7.47503H105.346V6.53441ZM105.346 7.47503H106.287V8.41565H105.346V7.47503ZM106.287 7.47503H107.227V8.41565H106.287V7.47503ZM106.287 6.53441H107.227V7.47503H106.287V6.53441ZM106.287 8.41565H107.227V9.35627H106.287V8.41565ZM105.346 8.41565H106.287V9.35627H105.346V8.41565ZM107.227 6.53441H108.168V7.47503H107.227V6.53441ZM107.227 7.47503H108.168V8.41565H107.227V7.47503ZM107.227 8.41565H108.168V9.35627H107.227V8.41565Z" fill="black"/>
</svg>
